<svg xmlns="http://www.w3.org/2000/svg" width="435.6915mm" height="133.97716mm" viewBox="0 0 435.6915 133.97716"><g style="stroke-width:.152988"><path d="M271.164 23.8v-6.484h1.309V20.2l2.66-2.883h1.762l-2.454 2.524 2.579 3.96h-1.696l-1.789-3.05-1.062 1.09v1.96zM278.668 21.453c0 .465.11.817.332 1.067q.327.37.813.37t.808-.37c.223-.25.328-.606.328-1.079 0-.457-.105-.808-.328-1.054a1.02 1.02 0 0 0-.808-.375q-.486 0-.813.375c-.223.246-.332.597-.332 1.066m-1.27-.066q0-.62.305-1.2c.203-.382.488-.68.86-.882.375-.203.789-.305 1.25-.305.707 0 1.289.227 1.738.691.453.457.68 1.043.68 1.747q0 1.066-.684 1.765-.69.702-1.727.7-.646-.001-1.226-.29a2 2 0 0 1-.89-.855q-.306-.562-.306-1.371M284.395 23.8h-1.243v-4.698h1.157v.668q.297-.475.535-.622a1 1 0 0 1 .535-.148q.423.001.816.23l-.379 1.082q-.315-.206-.586-.207a.7.7 0 0 0-.449.149c-.117.094-.215.266-.285.52q-.1.374-.101 1.574zM289.52 21.047q-.007-.54-.278-.82a.86.86 0 0 0-.644-.282.87.87 0 0 0-.672.297c-.18.2-.266.469-.266.805zm-.075 1.258 1.243.21c-.16.454-.415.797-.754 1.036q-.516.351-1.29.351-1.22 0-1.808-.797c-.309-.425-.465-.968-.465-1.617q0-1.165.61-1.828c.41-.441.921-.66 1.542-.66.7 0 1.247.227 1.653.691.398.457.594 1.164.578 2.118h-3.113q.013.552.3.859.288.305.715.305.295.001.489-.157.2-.159.3-.511M294.367 21.547q-.246.076-.762.187-.526.113-.683.22a.52.52 0 0 0-.246.437c0 .172.062.324.195.449a.68.68 0 0 0 .5.191q.34 0 .649-.222c.148-.11.25-.25.296-.41q.053-.16.051-.606zm-1.683-1.008-1.118-.203q.188-.684.657-1.012c.308-.219.77-.324 1.382-.324q.833-.002 1.243.195c.27.13.465.297.574.5.11.203.168.57.168 1.11l-.024 1.453c0 .414.024.719.063.914a2.6 2.6 0 0 0 .223.629h-1.23a3 3 0 0 1-.122-.367 1 1 0 0 0-.047-.145 2.2 2.2 0 0 1-.683.461 2 2 0 0 1-.774.152q-.721 0-1.144-.39c-.282-.262-.418-.594-.418-.996q0-.395.187-.707.2-.312.535-.477.353-.166.996-.289.875-.164 1.215-.305v-.125q-.002-.358-.18-.511-.178-.155-.675-.157c-.227 0-.399.043-.528.133-.125.086-.222.242-.3.461M302.414 21.227l-.89-2.399-.872 2.399zm2.402 2.574h-1.418l-.554-1.477h-2.594l-.535 1.477h-1.39l2.523-6.485h1.386zM306.691 23.8h-1.242v-4.698h1.156v.668c.2-.317.375-.524.536-.622a1 1 0 0 1 .539-.148c.285 0 .55.078.812.23l-.379 1.082q-.31-.206-.586-.207a.68.68 0 0 0-.441.149q-.188.14-.29.52-.105.374-.105 1.574zM311.184 19.102v.988h-.848v1.89c0 .383.008.61.023.672.016.067.051.114.11.157a.35.35 0 0 0 .21.062q.173-.002.497-.121l.105.969a2.4 2.4 0 0 1-.972.183c-.227 0-.426-.035-.606-.109a.9.9 0 0 1-.394-.293 1.1 1.1 0 0 1-.172-.484c-.032-.145-.04-.438-.04-.88V20.09h-.578v-.988h.579v-.93l1.238-.735v1.665zM311.61 22.469l1.25-.192q.077.359.324.547.239.188.671.188.48 0 .72-.176a.39.39 0 0 0 .163-.332.32.32 0 0 0-.09-.238c-.058-.055-.199-.114-.41-.164-1.004-.22-1.632-.422-1.902-.602-.371-.258-.559-.605-.559-1.059q-.001-.61.485-1.027.479-.415 1.492-.414.96-.002 1.433.313c.31.207.524.519.641.925l-1.176.215a.7.7 0 0 0-.28-.414c-.142-.102-.34-.148-.599-.148q-.487 0-.699.136a.3.3 0 0 0-.136.254q0 .134.12.227.17.124 1.16.347.99.228 1.384.555.386.33.386.922c0 .43-.175.8-.539 1.106-.355.312-.886.464-1.594.464q-.953.002-1.515-.382a1.8 1.8 0 0 1-.73-1.051M319.578 23.8v-6.484h1.961l1.176 4.422 1.156-4.422h1.969v6.485h-1.211l-.008-5.106-1.285 5.106h-1.258l-1.281-5.106-.008 5.106zM329.73 21.547q-.244.076-.765.187-.52.113-.684.22a.52.52 0 0 0-.242.437.6.6 0 0 0 .195.449.68.68 0 0 0 .5.191q.34 0 .649-.222c.148-.11.25-.25.297-.41q.051-.16.05-.606zm-1.68-1.008-1.12-.203q.187-.684.656-1.012c.309-.219.77-.324 1.383-.324q.832-.002 1.242.195c.27.13.465.297.574.5.11.203.164.57.164 1.11l-.015 1.453q0 .621.058.914a2.6 2.6 0 0 0 .223.629h-1.23a3 3 0 0 1-.122-.367 1 1 0 0 0-.047-.145 2.2 2.2 0 0 1-.68.461q-.361.152-.777.152-.721 0-1.144-.39a1.31 1.31 0 0 1-.418-.996q-.001-.395.191-.707c.125-.207.309-.368.535-.477q.346-.166.997-.289.872-.164 1.21-.305v-.125q.002-.358-.18-.511-.178-.155-.675-.157c-.227 0-.398.043-.523.133-.125.086-.23.242-.301.461M336.414 23.8h-1.238v-2.398c0-.507-.028-.832-.078-.984a.7.7 0 0 0-.258-.348.74.74 0 0 0-.43-.125 1 1 0 0 0-.574.18.9.9 0 0 0-.356.469q-.088.291-.09 1.082V23.8h-1.242v-4.7h1.157v.692q.613-.792 1.543-.793.406.001.746.145.334.15.511.378.178.23.243.524c.047.195.066.473.066.836zM340.29 21.547q-.243.076-.767.187c-.343.075-.574.149-.68.22a.52.52 0 0 0-.245.437.6.6 0 0 0 .195.449q.199.192.504.191.334 0 .644-.222c.153-.11.25-.25.297-.41q.052-.16.051-.606zm-1.685-1.008-1.117-.203c.125-.457.348-.793.657-1.012.308-.219.77-.324 1.382-.324.559 0 .97.063 1.243.195q.404.195.574.5c.11.203.168.57.168 1.11l-.02 1.453q0 .621.059.914c.043.195.113.406.222.629h-1.23a5 5 0 0 1-.117-.367l-.047-.145c-.215.203-.441.36-.684.461a2 2 0 0 1-.773.152q-.726 0-1.149-.39a1.31 1.31 0 0 1-.418-.996c0-.262.067-.5.192-.707q.194-.312.535-.477.347-.166.992-.289.877-.164 1.215-.305v-.125q0-.358-.18-.511-.18-.155-.671-.157-.34-.001-.528.133-.187.13-.305.461M343.703 21.355q.001.747.29 1.094.29.346.718.348.452-.002.77-.356.31-.356.312-1.058 0-.73-.305-1.082a.96.96 0 0 0-.758-.356.92.92 0 0 0-.738.352c-.191.226-.289.582-.289 1.058m-1.105 2.766 1.418.168c.02.168.078.281.164.348.117.086.3.133.554.133.329 0 .57-.051.735-.149a.64.64 0 0 0 .246-.316c.039-.11.058-.301.058-.582l.004-.696q-.565.774-1.414.774-.944 0-1.496-.797-.432-.638-.43-1.574c0-.79.188-1.39.567-1.809A1.83 1.83 0 0 1 344.41 19q.874 0 1.438.762v-.66h1.168v4.222q-.001.838-.137 1.246a1.6 1.6 0 0 1-.387.649 1.74 1.74 0 0 1-.664.367q-.41.134-1.043.133-1.195 0-1.691-.41a1.27 1.27 0 0 1-.5-1.036q-.001-.064.004-.152M351.035 21.047q-.01-.54-.277-.82a.87.87 0 0 0-.645-.282.89.89 0 0 0-.675.297q-.258.3-.258.805zm-.074 1.258 1.238.21c-.156.454-.41.797-.75 1.036-.344.234-.77.351-1.289.351-.812 0-1.418-.265-1.808-.797-.309-.425-.465-.968-.465-1.617 0-.777.207-1.386.61-1.828q.609-.66 1.542-.66c.695 0 1.246.227 1.649.691.406.457.597 1.164.582 2.118h-3.114q.013.552.301.859c.188.203.43.305.715.305q.288.001.488-.157.204-.159.3-.511M353.184 19.102h1.144v.64q.616-.743 1.465-.742.451.001.781.184.334.188.543.558c.203-.246.43-.433.664-.558q.357-.184.766-.184.517 0 .875.21c.234.138.414.345.531.614q.129.305.129.973V23.8h-1.238v-2.688q0-.698-.13-.898c-.112-.18-.292-.27-.526-.27a.85.85 0 0 0-.493.16.9.9 0 0 0-.332.47q-.098.304-.097.972V23.8h-1.247v-2.574c0-.457-.019-.754-.066-.887a.52.52 0 0 0-.207-.293.62.62 0 0 0-.375-.102.9.9 0 0 0-.516.157.85.85 0 0 0-.332.449q-.098.288-.097.965V23.8h-1.242zM364.113 21.047c-.008-.36-.097-.633-.277-.82a.88.88 0 0 0-.649-.282.86.86 0 0 0-.667.297q-.266.3-.262.805zm-.074 1.258 1.238.21c-.156.454-.41.797-.75 1.036-.343.234-.77.351-1.289.351-.812 0-1.418-.265-1.808-.797-.309-.425-.465-.968-.465-1.617q0-1.165.61-1.828c.405-.441.921-.66 1.538-.66.7 0 1.25.227 1.653.691.406.457.597 1.164.582 2.118h-3.114q.013.552.301.859.288.305.715.305.287.001.488-.157.2-.159.301-.511M370.613 23.8h-1.242v-2.398c0-.507-.023-.832-.078-.984a.7.7 0 0 0-.258-.348.73.73 0 0 0-.43-.125 1 1 0 0 0-.574.18.85.85 0 0 0-.347.469q-.1.291-.098 1.082V23.8h-1.238v-4.7h1.156v.692q.608-.792 1.539-.793.408.001.746.145c.23.101.399.226.516.378q.17.23.242.524.065.292.066.836zM374.035 19.102v.988h-.848v1.89c0 .383.008.61.028.672.015.067.05.114.11.157a.33.33 0 0 0 .206.062q.174-.002.496-.121l.114.969c-.29.125-.618.183-.98.183q-.338.001-.602-.109a.9.9 0 0 1-.399-.293 1.2 1.2 0 0 1-.172-.484q-.04-.217-.039-.88V20.09h-.574v-.988h.574v-.93l1.238-.735v1.665zM377.867 23.355q.657.569 1.887.567.837.001 1.406-.238c.38-.157.668-.395.875-.72.203-.323.309-.675.309-1.046q.002-.615-.254-1.031c-.176-.282-.41-.5-.719-.66q-.456-.24-1.402-.47-.951-.222-1.2-.433a.5.5 0 0 1-.195-.394q0-.248.207-.403.32-.234.887-.234.546 0 .824.223.277.212.36.718l1.3-.05q-.024-.897-.64-1.43c-.41-.363-1.02-.54-1.828-.54q-.746 0-1.274.224a1.78 1.78 0 0 0-.805.656q-.28.433-.28.926c0 .515.198.953.597 1.304.277.258.77.469 1.469.645.543.136.89.226 1.046.281.22.078.375.176.465.281.09.11.133.235.133.395q0 .351-.316.62-.322.268-.953.267-.598 0-.95-.297-.352-.304-.464-.942l-1.27.121c.082.727.348 1.282.785 1.66M386.234 21.047q-.006-.54-.277-.82a.87.87 0 0 0-.644-.282.87.87 0 0 0-.672.297q-.263.3-.262.805zm-.074 1.258 1.238.21q-.234.68-.75 1.036-.51.351-1.289.351c-.812 0-1.418-.265-1.808-.797-.309-.425-.461-.968-.461-1.617q-.001-1.165.605-1.828.613-.66 1.543-.66c.7 0 1.246.227 1.653.691q.602.686.578 2.118h-3.114q.013.552.301.859c.196.203.43.305.715.305.191 0 .36-.051.488-.157q.2-.159.301-.511M389.66 23.8h-1.238v-4.698h1.152v.668c.2-.317.375-.524.535-.622s.336-.148.54-.148q.42.001.82.23l-.383 1.082q-.315-.206-.59-.207-.259.001-.441.149c-.121.094-.22.266-.285.52q-.111.374-.11 1.574z" style="fill:#919497;fill-opacity:1;fill-rule:nonzero;stroke:none;stroke-width:.152988" transform="matrix(2.30591 0 0 2.30591 -506.733 .009)"/><path d="m393.277 23.8-1.89-4.698h1.304l.883 2.398.258.8q.1-.302.129-.402.064-.198.133-.398l.894-2.398h1.278l-1.868 4.699zM397.02 23.8v-4.698h1.242V23.8zm0-5.335v-1.149h1.242v1.149zM403.645 20.484l-1.223.227q-.065-.37-.281-.55a.88.88 0 0 0-.575-.184c-.312 0-.558.105-.746.32q-.276.321-.277 1.07 0 .838.281 1.176a.93.93 0 0 0 .758.348q.358-.002.586-.203c.148-.133.258-.364.32-.692l1.223.207q-.192.843-.73 1.27c-.364.289-.844.43-1.45.43q-1.03 0-1.644-.645c-.407-.438-.614-1.035-.614-1.801q.002-1.164.614-1.812c.41-.43.968-.645 1.664-.645q.857 0 1.363.363c.34.246.578.621.73 1.121M407.367 21.047q-.01-.54-.277-.82a.87.87 0 0 0-.645-.282.88.88 0 0 0-.675.297c-.172.2-.262.469-.258.805zm-.074 1.258 1.238.21q-.234.68-.75 1.036c-.343.234-.77.351-1.289.351-.812 0-1.418-.265-1.808-.797-.309-.425-.461-.968-.461-1.617q.001-1.165.605-1.828.61-.66 1.543-.66c.695 0 1.246.227 1.649.691.406.457.597 1.164.582 2.118h-3.114q.013.552.301.859.287.305.715.305.288.001.488-.157.2-.159.301-.511" style="fill:#919497;fill-opacity:1;fill-rule:nonzero;stroke:none;stroke-width:.152988" transform="matrix(2.30591 0 0 2.30591 -506.733 .009)"/><path d="M306.352 34.7h-4.403v-3.18h4.403v-2.032h3.351V43h-3.351v-3.242h-4.403v-3.004h4.403zM303.445 54.895c1.91 0 3.36-1.391 3.36-3.297 0-1.91-1.45-3.356-3.36-3.356s-3.41 1.446-3.41 3.356c0 1.906 1.5 3.297 3.41 3.297m0-9.715c3.586 0 6.653 2.89 6.653 6.418 0 3.468-3.067 6.363-6.653 6.363s-6.648-2.895-6.648-6.363c0-3.528 3.062-6.418 6.648-6.418" style="fill:#211e1e;fill-opacity:1;fill-rule:nonzero;stroke:none;stroke-width:.152988" transform="matrix(2.30591 0 0 2.30591 -506.733 .009)"/><path d="m319.922 35.2-4.336 6.765-2.727-1.79 4.918-7.577h-4.34v-3.07h12.844v3.07H322l4.86 7.46-2.715 1.79zM334.688 42.98h-3.352V29.555h3.351z" style="fill:#99b34a;fill-opacity:1;fill-rule:nonzero;stroke:none;stroke-width:.152988" transform="matrix(2.30591 0 0 2.30591 -506.733 .009)"/><path d="M245.785 42.98h-3.351V29.555h3.351z" style="fill:#211e1e;fill-opacity:1;fill-rule:nonzero;stroke:none;stroke-width:.152988" transform="matrix(2.30591 0 0 2.30591 -506.733 .009)"/><path d="M344.063 38.11c1.675 0 3.183-1.505 3.183-3.18s-1.508-3.125-3.183-3.125c-1.676 0-3.125 1.449-3.125 3.125s1.449 3.18 3.125 3.18m0-9.372c3.472 0 6.417 2.836 6.417 6.192 0 3.351-2.886 6.246-6.417 6.246-3.524 0-6.418-2.895-6.418-6.246 0-3.356 2.894-6.192 6.417-6.192" style="fill:#99b34a;fill-opacity:1;fill-rule:nonzero;stroke:none;stroke-width:.152988" transform="matrix(2.30591 0 0 2.30591 -506.733 .009)"/><path d="M342.316 42.832h-5.257v-3.117h13.933v3.117h-5.316v5.328h-3.36zM355.703 45.805h-3.476v-3.008h3.476V32.555h3.41v17.543h-3.41zm3.586 11.402h-12.144v-8.93h3.359v5.868h8.785zM387.652 42.98h-3.351V29.52h3.351zm.09 14.47h-12.148v-9.665h3.355v6.598h8.793zm-9.926-19.544h-3.523v-3.125h3.523V29.52h3.297v13.46h-3.297zm-10.023-2.14-4.512 6.539-2.547-1.797 7.118-10.352 6.878 10.235-2.43 1.738zM390.344 44.328V29.523h9.945v3.122h-6.594v2.14h6.594v3.121h-6.594v3.239h6.594v3.183zM405.281 38.066h-3.969v-3.125h3.97V29.52h3.417v13.46h-3.418z" style="fill:#99b34a;fill-opacity:1;fill-rule:nonzero;stroke:none;stroke-width:.152988" transform="matrix(2.30591 0 0 2.30591 -506.733 .009)"/><path d="M237.324 34.848h-3.644v-3.184h3.644v-2.113h3.238v13.406h-3.238v-3.05h-3.644v-3.009h3.644zM226.406 39.129c1.852 0 3.41-1.45 3.41-3.36 0-1.847-1.558-3.351-3.41-3.351-1.91 0-3.297 1.504-3.297 3.352 0 1.91 1.387 3.359 3.297 3.359m0-9.777c3.586 0 6.653 2.949 6.653 6.418 0 3.53-3.067 6.48-6.653 6.48s-6.652-2.95-6.652-6.48c0-3.47 3.066-6.418 6.652-6.418M294.7 39.129c1.855 0 3.413-1.45 3.413-3.36 0-1.847-1.558-3.351-3.414-3.351-1.906 0-3.297 1.504-3.297 3.352 0 1.91 1.391 3.359 3.297 3.359m0-9.777c3.59 0 6.655 2.949 6.655 6.418 0 3.53-3.066 6.48-6.656 6.48-3.586 0-6.648-2.95-6.648-6.48 0-3.47 3.062-6.418 6.648-6.418M249.16 29.535h12.203v8.008h-8.793v2.473h8.793v3.125H249.22v-8.606h8.793V32.72h-8.852zm5.957-17.324-5.668 6.36-2.375-2.196 8.043-8.906 8.04 8.906-2.372 2.195zm-1.68 11.684h-9.542V20.77h22.503v3.125h-9.543v3.988h-3.418z" style="fill:#211e1e;fill-opacity:1;fill-rule:nonzero;stroke:none;stroke-width:.152988" transform="matrix(2.30591 0 0 2.30591 -506.733 .009)"/><path d="m255.121 4.738-5.672 6.364-2.375-2.2 8.047-8.906 8.035 8.906-2.37 2.2z" style="fill:#99b34a;fill-opacity:1;fill-rule:nonzero;stroke:none;stroke-width:.152988" transform="matrix(2.30591 0 0 2.30591 -506.733 .009)"/><path d="M281.488 34.852h-4.394v-3.18h4.394V29.55h3.36v13.43h-3.36v-2.028h-4.394v-3.008h4.394zm-2.66 20.183c1.906 0 3.36-1.387 3.36-3.297s-1.454-3.355-3.36-3.355c-1.902 0-3.414 1.445-3.414 3.355s1.512 3.297 3.414 3.297m0-9.719c3.594 0 6.652 2.895 6.652 6.422 0 3.469-3.058 6.36-6.652 6.36-3.586 0-6.648-2.891-6.648-6.36 0-3.527 3.062-6.422 6.648-6.422m-14.922-15.765h11.223v13.43h-3.36V32.73h-7.863z" style="fill:#211e1e;fill-opacity:1;fill-rule:nonzero;stroke:none;stroke-width:.152988" transform="matrix(2.30591 0 0 2.30591 -506.733 .009)"/></g></svg>